<?xml version="1.0" encoding="utf-8"?>
<!-- Generator: Adobe Illustrator 15.0.0, SVG Export Plug-In . SVG Version: 6.00 Build 0)  -->
<!DOCTYPE svg PUBLIC "-//W3C//DTD SVG 1.1//EN" "http://www.w3.org/Graphics/SVG/1.1/DTD/svg11.dtd">
<svg version="1.1" id="Layer_1" xmlns="http://www.w3.org/2000/svg" xmlns:xlink="http://www.w3.org/1999/xlink" x="0px" y="0px"
	 width="512px" height="512px" viewBox="0 0 512 512" enable-background="new 0 0 512 512" xml:space="preserve">
<g>
	<path d="M42,477.719c-27.5,0-38.753-19.487-25.007-43.306L231.007,63.587c13.746-23.818,36.239-23.818,49.985,0l214.015,370.826
		c13.746,23.818,2.493,43.306-25.007,43.306H42z"/>
</g>
<rect x="232" y="160.734" fill="#FFFFFF" width="48" height="203.99"/>
<rect x="232" y="388.725" fill="#FFFFFF" width="48" height="45.498"/>
<g>
	<path fill="#C1272D" d="M554,477.719c-27.5,0-38.753-19.487-25.007-43.306L743.007,63.587c13.746-23.818,36.239-23.818,49.985,0
		l214.015,370.826c13.746,23.818,2.493,43.306-25.007,43.306H554z"/>
</g>
<rect x="744" y="160.734" fill="#FFFFFF" width="48" height="203.99"/>
<rect x="744" y="388.725" fill="#FFFFFF" width="48" height="45.498"/>
<g>
	<path fill="#FBB03B" d="M1066,477.719c-27.5,0-38.753-19.487-25.007-43.306l214.014-370.826c13.746-23.818,36.24-23.818,49.986,0
		l214.014,370.826c13.746,23.818,2.493,43.306-25.007,43.306H1066z"/>
</g>
<rect x="1256" y="160.734" fill="#FFFFFF" width="48" height="203.99"/>
<rect x="1256" y="388.725" fill="#FFFFFF" width="48" height="45.498"/>
<circle fill="#29ABE2" cx="256" cy="-256" r="219"/>
<rect x="232" y="-301.006" fill="#FFFFFF" width="48" height="181.491"/>
<rect x="232" y="-370.002" fill="#FFFFFF" width="48" height="45.498"/>
<circle fill="#39B54A" cx="768" cy="-256" r="219"/>
<g>
	<path fill="#FFFFFF" d="M720.75-128.013v-37.5h-37.5v-112.5h37.5v-37.5h75v-75h37.5v262.5H720.75z M795.75-165.513v-112.5h-75
		v112.5H795.75z"/>
</g>
<circle fill="#39B54A" cx="1280" cy="-256" r="219"/>
<polygon fill="#FFFFFF" points="1427.223,-331.966 1393.281,-365.908 1239.994,-212.195 1184.949,-267.241 1152.777,-235.069 
	1241.775,-146.092 "/>
<circle fill="#C1272D" cx="256" cy="768" r="219"/>
<rect x="165.254" y="744" fill="#FFFFFF" width="181.492" height="48"/>
<circle cx="768" cy="768" r="219"/>
<polygon fill="#FFFFFF" points="879.714,690.229 845.772,656.287 768,734.06 690.229,656.286 656.287,690.228 734.06,768 
	656.286,845.773 690.227,879.713 768,801.94 845.773,879.714 879.713,845.773 801.941,768 "/>
<circle fill="#39B54A" cx="1280" cy="768" r="219"/>
<polygon fill="#FFFFFF" points="1304.001,634.014 1256.001,634.014 1256.001,744 1146.014,743.999 1146.014,791.999 
	1256.001,791.999 1256.001,901.987 1303.999,901.986 1304,791.999 1413.987,791.999 1413.987,744.001 1304,743.999 "/>
<circle fill="#29ABE2" cx="1792" cy="-256" r="219"/>
<rect x="1768" y="-141.258" fill="#FFFFFF" width="48" height="45.498"/>
<path fill="#FFFFFF" d="M1792-398.504c-33.156,0-62.539,16.141-80.732,40.99l33.262,33.261h0.077
	c9.14-16.787,26.936-28.179,47.394-28.179c29.783,0,53.928,24.144,53.928,53.928c0,25.364-3.928,50.504-76.928,70.002v64.494h47
	v-37.403c43.636-10.75,76-50.139,76-97.094C1892-353.733,1847.229-398.504,1792-398.504z"/>
</svg>
