<?xml version="1.0" encoding="utf-8"?>
<!-- Generator: Adobe Illustrator 17.0.0, SVG Export Plug-In . SVG Version: 6.00 Build 0)  -->
<!DOCTYPE svg PUBLIC "-//W3C//DTD SVG 1.1//EN" "http://www.w3.org/Graphics/SVG/1.1/DTD/svg11.dtd">
<svg version="1.1" xmlns="http://www.w3.org/2000/svg" xmlns:xlink="http://www.w3.org/1999/xlink" x="0px" y="0px"
	 width="434.375px" height="181.25px" viewBox="0 0 434.375 181.25" enable-background="new 0 0 434.375 181.25"
	 xml:space="preserve">
<g id="Layer_3" display="none">
	<rect x="-9" y="-9" display="inline" fill="#FFFFFF" width="452.375" height="199.25"/>
</g>
<g id="Layer_1">
	<path d="M93.467,71.224c0,16.297-10.826,25.61-25.727,25.61S48.162,86.061,48.162,69.763c0,0,5.377,26.023,19.579,26.023
		c14.202,0,24.562-8.614,24.562-24.562V16.861h1.164V71.224z"/>
	<path d="M109.662,12.901h1.164v82.65h-1.164V12.901z"/>
	<path d="M121.07,60.163v-1.047h5.238V36.299h1.164v22.816h11.175v1.047h-11.175V88.8c0,3.958,2.561,6.519,6.635,6.519
		c2.212,0,4.075-0.582,5.588-2.444l0.815,0.698c-1.63,1.979-3.725,2.794-6.403,2.794c-4.772,0-7.799-3.027-7.799-7.567V60.163
		H121.07z"/>
	<path d="M162.28,58.185c2.677,0,4.074,0.465,5.937,1.746l-0.582,0.931c-1.747-1.164-3.027-1.63-5.355-1.63
		c-4.889,0-11.175,3.958-11.175,14.667v21.652h-1.164V59.116h1.164v8.148C153.2,60.629,158.089,58.185,162.28,58.185z"/>
	<path d="M202.209,71.921c0-9.197-5.122-12.689-12.456-12.689c-5.821,0-9.895,2.445-12.805,6.635l-0.815-0.582
		c2.678-4.191,7.334-7.101,13.62-7.101c7.915,0,13.62,3.841,13.62,13.736v23.631h-1.164v-7.566
		c-1.979,5.238-7.217,8.381-14.551,8.381c-8.148,0-14.202-4.074-14.202-10.826c0-7.566,6.286-10.477,13.154-10.477h15.599V71.921z
		 M202.209,76.111h-15.599c-6.17,0-11.99,2.445-11.99,9.429c0,6.17,5.587,9.778,13.038,9.778c8.498,0,14.551-4.889,14.551-12.106
		V76.111z"/>
	
		<line fill="none" stroke="#000000" stroke-width="0.5" stroke-miterlimit="10" x1="46.875" y1="105.625" x2="383.75" y2="105.625"/>
	<g>
		<path d="M56.034,146.045c-4.245,0-7.537-3.339-7.537-7.822c0-4.484,3.292-7.823,7.537-7.823c2.48,0,4.34,0.906,5.724,2.624
			l-0.333,0.286c-1.288-1.67-3.005-2.48-5.39-2.48c-3.959,0-7.06,3.195-7.06,7.394c0,4.197,3.101,7.393,7.06,7.393
			c2.433,0,4.579-0.954,5.915-2.671l0.334,0.286C60.899,145.043,58.609,146.045,56.034,146.045z"/>
		<path d="M72.058,146.045c-3.578,0-6.058-1.908-6.058-6.105v-9.158h0.477v9.158c0,4.007,2.29,5.676,5.581,5.676
			c2.29,0,5.581-1.765,5.581-5.914v-8.92h0.477v14.93h-0.477v-3.769C76.78,144.9,74.109,146.045,72.058,146.045z"/>
		<path d="M87.462,130.829c-2.242,0-3.482,1.431-3.482,3.053c0,2.337,1.669,2.957,3.959,3.721c2.433,0.811,4.913,1.526,4.913,4.531
			c0,2.433-1.956,3.911-4.913,3.911c-2.958,0-4.722-1.479-5.724-3.577l0.429-0.191c0.811,1.765,2.385,3.339,5.295,3.339
			c2.671,0,4.436-1.335,4.436-3.481c0-2.814-2.337-3.339-4.532-4.103c-2.385-0.811-4.34-1.526-4.34-4.149
			c0-1.86,1.479-3.482,3.959-3.482c2.194,0,3.339,1.002,4.007,2.337l-0.43,0.191C90.467,131.735,89.466,130.829,87.462,130.829z"/>
		<path d="M95.379,131.211v-0.43h2.146v-9.349h0.477v9.349h4.579v0.43h-4.579v11.733c0,1.622,1.05,2.671,2.719,2.671
			c0.906,0,1.669-0.238,2.29-1.001l0.333,0.286c-0.667,0.811-1.526,1.145-2.623,1.145c-1.956,0-3.196-1.24-3.196-3.101v-11.733
			H95.379z"/>
		<path d="M113.217,130.399c4.341,0,7.823,3.339,7.823,7.823c0,4.483-3.482,7.822-7.823,7.822s-7.823-3.339-7.823-7.822
			C105.394,133.738,108.876,130.399,113.217,130.399z M113.217,130.829c-4.054,0-7.346,3.101-7.346,7.394
			c0,4.292,3.292,7.393,7.346,7.393s7.346-3.101,7.346-7.393C120.562,133.93,117.271,130.829,113.217,130.829z"/>
		<path d="M141.356,130.399c2.91,0,5.151,1.765,5.151,5.915v9.396h-0.477v-9.396c0-3.769-2.051-5.485-4.674-5.485
			c-2.528,0-5.295,1.574-5.295,5.151v9.73h-0.477v-9.73c0-3.625-2.051-5.151-4.674-5.151c-2.528,0-5.294,1.765-5.294,5.485v9.396
			h-0.477v-14.93h0.477v3.243c0.906-2.48,3.148-3.625,5.294-3.625c2.528,0,4.436,1.24,4.961,4.055
			C136.491,131.735,139.019,130.399,141.356,130.399z"/>
		<path d="M161.814,145.711h-0.477v-33.866h0.477v23.754c0.954-3.101,3.72-5.199,7.059-5.199c4.198,0,7.632,3.339,7.632,7.823
			c0,4.483-3.434,7.822-7.632,7.822c-3.339,0-6.105-2.099-7.059-5.199V145.711z M168.873,130.829c-3.911,0-7.059,3.101-7.059,7.394
			c0,4.292,3.148,7.393,7.059,7.393c3.912,0,7.155-3.101,7.155-7.393C176.028,133.93,172.785,130.829,168.873,130.829z"/>
		<path d="M186.996,130.399c4.341,0,7.823,3.339,7.823,7.823c0,4.483-3.482,7.822-7.823,7.822s-7.823-3.339-7.823-7.822
			C179.173,133.738,182.655,130.399,186.996,130.399z M186.996,130.829c-4.054,0-7.346,3.101-7.346,7.394
			c0,4.292,3.292,7.393,7.346,7.393s7.346-3.101,7.346-7.393C194.342,133.93,191.05,130.829,186.996,130.829z"/>
		<path d="M205.119,146.045c-4.197,0-7.632-3.339-7.632-7.822c0-4.484,3.435-7.823,7.632-7.823c3.339,0,6.105,2.099,7.06,5.199
			v-23.754h0.477v33.866h-0.477v-4.865C211.224,143.946,208.458,146.045,205.119,146.045z M205.119,145.615
			c3.912,0,7.06-3.101,7.06-7.393c0-4.293-3.148-7.394-7.06-7.394c-3.911,0-7.155,3.101-7.155,7.394
			C197.964,142.515,201.208,145.615,205.119,145.615z"/>
		<path d="M216.182,130.781h0.477l6.678,14.262l6.201-14.262h0.477l-10.875,25.042h-0.477l4.436-10.208L216.182,130.781z"/>
		<path d="M249.043,146.045c-4.245,0-7.536-3.339-7.536-7.822c0-4.484,3.291-7.823,7.536-7.823c2.48,0,4.341,0.906,5.724,2.624
			l-0.334,0.286c-1.288-1.67-3.005-2.48-5.39-2.48c-3.959,0-7.06,3.195-7.06,7.394c0,4.197,3.101,7.393,7.06,7.393
			c2.433,0,4.579-0.954,5.915-2.671l0.333,0.286C253.908,145.043,251.619,146.045,249.043,146.045z"/>
		<path d="M265.497,130.399c4.341,0,7.822,3.339,7.822,7.823c0,4.483-3.481,7.822-7.822,7.822s-7.822-3.339-7.822-7.822
			C257.675,133.738,261.156,130.399,265.497,130.399z M265.497,130.829c-4.055,0-7.346,3.101-7.346,7.394
			c0,4.292,3.291,7.393,7.346,7.393s7.346-3.101,7.346-7.393C272.843,133.93,269.552,130.829,265.497,130.829z"/>
		<path d="M283.477,130.399c3.577,0,6.058,1.956,6.058,6.153v9.158h-0.477v-9.158c0-4.007-2.29-5.724-5.581-5.724
			c-2.289,0-5.581,1.812-5.581,5.962v8.92h-0.477v-14.93h0.477v3.769C278.755,131.592,281.426,130.399,283.477,130.399z"/>
		<path d="M293.491,131.211v-0.43h2.146v-9.349h0.477v9.349h4.579v0.43h-4.579v11.733c0,1.622,1.05,2.671,2.719,2.671
			c0.906,0,1.67-0.238,2.29-1.001l0.334,0.286c-0.668,0.811-1.526,1.145-2.624,1.145c-1.955,0-3.195-1.24-3.195-3.101v-11.733
			H293.491z"/>
		<path d="M311.329,130.399c4.341,0,7.822,3.339,7.822,7.823c0,4.483-3.481,7.822-7.822,7.822s-7.822-3.339-7.822-7.822
			C303.507,133.738,306.988,130.399,311.329,130.399z M311.329,130.829c-4.055,0-7.346,3.101-7.346,7.394
			c0,4.292,3.291,7.393,7.346,7.393s7.346-3.101,7.346-7.393C318.675,133.93,315.384,130.829,311.329,130.829z"/>
		<path d="M329.213,146.045c-3.577,0-6.058-1.908-6.058-6.105v-9.158h0.478v9.158c0,4.007,2.289,5.676,5.58,5.676
			c2.29,0,5.581-1.765,5.581-5.914v-8.92h0.478v14.93h-0.478v-3.769C333.936,144.9,331.265,146.045,329.213,146.045z"/>
		<path d="M345.763,130.399c1.097,0,1.669,0.191,2.433,0.716l-0.238,0.382c-0.716-0.478-1.24-0.668-2.194-0.668
			c-2.004,0-4.579,1.621-4.579,6.01v8.872h-0.478v-14.93h0.478v3.339C342.042,131.401,344.045,130.399,345.763,130.399z"/>
		<path d="M351.39,123.531c0-0.239,0.238-0.478,0.478-0.478c0.238,0,0.477,0.238,0.477,0.478c0,0.238-0.238,0.477-0.477,0.477
			C351.628,124.008,351.39,123.77,351.39,123.531z M351.628,130.781h0.478v14.93h-0.478V130.781z"/>
		<path d="M363.838,130.399c3.577,0,6.058,1.956,6.058,6.153v9.158h-0.477v-9.158c0-4.007-2.29-5.724-5.581-5.724
			c-2.289,0-5.581,1.812-5.581,5.962v8.92h-0.477v-14.93h0.477v3.769C359.116,131.592,361.787,130.399,363.838,130.399z"/>
		<path d="M387.686,130.781v0.43h-4.531c1.669,0.953,2.767,2.766,2.767,4.96c0,3.339-2.576,5.771-5.819,5.771
			c-1.384,0-2.624-0.429-3.625-1.192c-0.812,0.191-1.812,0.954-1.812,2.099c0,1.384,1.097,2.099,2.671,2.194l3.481,0.191
			c4.675,0.238,6.917,2.337,6.917,5.485c0,3.481-3.673,5.342-7.68,5.342c-4.293,0-7.68-2.051-7.68-5.438
			c0-2.767,1.812-4.627,5.247-5.151h-0.144c-2.003-0.048-3.291-0.954-3.291-2.624c0-1.24,0.954-2.146,1.908-2.433
			c-1.145-1.049-1.812-2.527-1.812-4.245c0-3.339,2.575-5.771,5.819-5.771c0.763,0,1.479,0.144,2.146,0.382H387.686z
			 M372.852,150.624c0,3.101,3.195,5.009,7.202,5.009c3.721,0,7.202-1.718,7.202-4.913c0-2.958-2.146-4.771-6.439-5.009
			C375.761,145.425,372.852,147.333,372.852,150.624z M385.443,136.171c0-3.101-2.385-5.342-5.342-5.342
			c-2.958,0-5.343,2.289-5.343,5.342c0,3.101,2.385,5.343,5.343,5.343C383.059,141.514,385.443,139.224,385.443,136.171z"/>
	</g>
	<g>
		<path d="M274.771,77.249c0,11.874-7.566,21.303-23.398,21.303h-29.452V19.394h26.192c13.619,0,19.789,8.265,19.789,18.742
			c0,8.498-3.492,15.366-12.455,16.879C268.834,56.528,274.771,65.608,274.771,77.249z M250.441,54.666
			c11.524,0,16.297-6.752,16.297-16.53s-5.354-17.694-18.625-17.694h-25.028v34.225H250.441z M223.085,97.504h28.288
			c15.133,0,22.234-9.08,22.234-20.255c0-12.572-6.869-21.536-22.584-21.536h-27.938V97.504z"/>
		<path d="M302.129,61.185c10.594,0,19.092,8.148,19.092,19.091s-8.498,19.091-19.092,19.091c-10.593,0-19.091-8.149-19.091-19.091
			S291.536,61.185,302.129,61.185z M302.129,62.232c-9.895,0-17.927,7.567-17.927,18.043c0,10.477,8.032,18.043,17.927,18.043
			c9.896,0,17.928-7.566,17.928-18.043C320.057,69.799,312.024,62.232,302.129,62.232z"/>
		<path d="M346.366,99.367c-10.243,0-18.626-8.149-18.626-19.091s8.383-19.091,18.626-19.091c8.149,0,14.9,5.122,17.229,12.688
			V15.901h1.165v82.65h-1.165V86.678C361.267,94.245,354.516,99.367,346.366,99.367z M346.366,98.319
			c9.546,0,17.229-7.566,17.229-18.043c0-10.477-7.683-18.043-17.229-18.043s-17.462,7.567-17.462,18.043
			C328.904,90.752,336.82,98.319,346.366,98.319z"/>
		<path d="M373.375,62.116h1.164l16.297,34.806l15.134-34.806h1.164l-26.541,61.115h-1.164l10.825-24.912L373.375,62.116z"/>
	</g>
	<g id="Florid_Vector_Pack_15">
		<path d="M55.992,93.268C53.13,90.979,38.684,78.893,35.31,65.627c-1.823-7.17-2.149-14.242-0.967-21.021
			c1.1-6.316,3.54-12.207,7.055-17.035c1.057-1.456,1.44-2.873,1.051-3.888c-0.197-0.512-0.576-0.853-1.069-0.959
			c-0.2-0.042-0.413-0.045-0.632-0.007c-0.725,0.124-0.844,0.653-0.851,0.958c-0.011,0.541,0.338,1.197,0.877,1.313
			c0.156,0.034,0.321,0.019,0.491-0.042c0.043-0.015,0.087-0.018,0.13-0.009c0.06,0.013,0.113,0.049,0.148,0.103
			c0.061,0.091,0.05,0.212-0.025,0.292c-0.03,0.032-0.75,0.779-1.852,0.543c-0.709-0.151-1.402-0.679-2.061-1.567
			c-0.92-1.243-0.921-2.901-0.001-4.328c1.1-1.709,3.156-2.524,5.238-2.077c3.516,0.753,3.863,3.568,3.872,4.573
			c0.386-0.109,1.046-0.24,1.677-0.105c0.57,0.122,0.997,0.433,1.269,0.92c0.352,0.632,0.796,1.034,1.251,1.132
			c0.353,0.076,0.693-0.046,0.932-0.333c0.054-0.065,0.139-0.095,0.221-0.081l0.042-0.05l0.009,0.067
			c0.078,0.031,0.134,0.101,0.146,0.184c0.009,0.076,0.239,1.858-0.733,3.066c-0.316,0.395-0.723,0.681-1.214,0.856
			c0.75,0.278,1.877,0.789,2.964,1.644c1.697,1.333,3.594,3.781,2.997,7.866c-0.424,2.914-1.6,4.279-2.511,4.913
			c-0.903,0.627-1.982,0.849-3.038,0.623c-0.786-0.168-1.477-0.568-1.946-1.126c-0.502-0.597-0.694-1.317-0.542-2.028
			c0.001-0.01,0.004-0.018,0.007-0.028c0.476-1.378,1.698-1.508,2.278-1.384c0.08,0.017,0.146,0.075,0.173,0.152
			c0.027,0.077,0.014,0.164-0.038,0.228c-0.075,0.096-0.711,0.955,0.077,1.595c0.168,0.136,0.345,0.225,0.526,0.264
			c0.39,0.083,0.816-0.068,1.202-0.427c0.653-0.607,1.22-1.857,1.02-3.279c-0.223-1.578-1.81-3.028-3.776-3.449
			c-2.779-0.596-5.631,0.923-7.822,4.167c-2.512,3.887-3.428,6.147-3.762,7.298c0.573-0.601,1.545-1.227,2.979-0.919
			c2.905,0.622,2.191,4.312,2.184,4.351c-0.017,0.083-0.078,0.148-0.157,0.174l-0.035,0.171l-0.069-0.159
			c-0.008-0.002-0.014,0-0.022-0.002c-0.073-0.016-0.136-0.066-0.168-0.137c-0.004-0.011-0.51-1.141-1.496-1.352
			c-0.331-0.071-0.685,0.017-1.023,0.254c-0.586,0.41-1.647,1.655-2.171,5.397c-0.92,6.564-1.21,23.161,15.436,37.186
			c-2.137-3.038-4.947-8.122-6.69-15.949c-0.313-1.402-0.49-2.827-0.549-4.259c-0.476,0.185-1.204,0.401-2.282,0.568
			c-0.329,0.051-0.658,0.037-0.975-0.031c-1.692-0.367-3.063-2.242-2.688-4.03c0.069-0.323,0.197-0.641,0.39-0.945
			c0.76-1.203,1.81-1.504,2.687-1.312c0.781,0.17,1.432,0.705,1.676,1.312l0.073,0.184l-0.196-0.021
			c0-0.001-0.276-0.031-0.577,0.038c-0.303,0.07-0.601,0.224-0.703,0.586c-0.007,0.023-0.013,0.047-0.018,0.069
			c-0.144,0.677,0.384,1.328,0.958,1.453c0.337,0.068,0.67-0.024,0.933-0.404c0.229-0.335,0.398-0.741,0.49-1.171
			c0.208-0.968,0.021-2.045-0.734-2.739l-0.216-0.198l0.294-0.007c0.007,0,0.095-0.002,0.233,0.028
			c0.258,0.054,0.694,0.226,1.116,0.706c0.386-1.914,0.996-3.79,1.83-5.574c1.924-4.12,4.895-7.424,7.75-8.621
			c6.737-2.544,9.763-9.251,10.967-13.021c1.813-5.676,1.612-10.979,0.371-12.827c-0.312-0.498-0.659-0.788-1.036-0.869
			c-0.446-0.096-0.945,0.121-1.332,0.582c-0.372,0.442-0.536,0.988-0.399,1.326c0.163,0.404,0.394,0.641,0.685,0.703
			c0.434,0.093,0.892-0.21,0.897-0.212c0.056-0.038,0.122-0.049,0.184-0.037c0.039,0.009,0.078,0.027,0.109,0.056
			c0.082,0.073,0.103,0.193,0.05,0.29c-0.542,1.003-1.492,1.443-2.604,1.204c-1.094-0.235-2.106-1.085-2.353-1.98
			c-0.309-1.119,0.185-2.05,0.526-2.525c-0.686-0.225-1.532-1.014-1.936-2.195c-0.255-0.747-1.026-1.057-1.626-1.186
			c-0.453-0.097-0.804-0.091-0.869-0.088c-0.065,0.001-0.135-0.004-0.208-0.02c-0.418-0.09-0.912-0.467-0.978-0.884
			c-0.026-0.164-0.009-0.475,0.399-0.713c0.006-0.002,0.01-0.005,0.015-0.007c2.338-1.136,4.492-1.504,6.405-1.094
			c2.836,0.608,5.055,2.966,6.245,6.64c1.133,3.497,1.275,7.912,0.401,12.432c-1.188,6.13-3.681,10.136-5.562,12.416
			c-1.209,1.465-2.313,2.418-3.03,2.962c0.538-0.025,1.087,0.021,1.641,0.14c1.887,0.404,3.804,1.658,5.261,3.441
			c1.426,1.746,2.197,3.707,2.116,5.379c-0.183,3.769-2.041,6.159-5.233,6.73c-0.781,0.14-1.218,0.585-1.229,1.252
			c-0.014,0.791,0.562,1.637,1.209,1.776c0.205,0.044,0.405,0.012,0.597-0.094c0.41-0.228,0.664-0.527,0.754-0.889
			c0.17-0.682-0.274-1.379-0.278-1.386c-0.06-0.093-0.048-0.214,0.029-0.295c0.058-0.059,0.142-0.084,0.221-0.067
			c0.024,0.006,0.049,0.015,0.071,0.029c1.42,0.849,1.487,2.268,1.076,3.312c-0.508,1.289-1.889,2.479-3.451,2.145l-0.028-0.006
			c-2.279-0.517-3.596-2.47-3.129-4.647c0.337-1.571,1.543-2.365,2.195-2.687c-0.627-0.477-1.736-1.598-1.047-3.214
			c0.452-1.057,1.358-1.5,2.554-1.243c0.492,0.106,0.851,0.293,0.866,0.302c0.076,0.039,0.121,0.117,0.125,0.199l0.219,0.115
			l-0.247,0.008c-0.039,0.073-0.114,0.123-0.199,0.126c-0.401,0.013-0.678,0.214-0.705,0.514c-0.029,0.331,0.272,0.736,1.012,0.894
			c0.327,0.07,0.609-0.048,0.838-0.351c0.663-0.876,0.733-3.024-0.219-4.824c-0.788-1.492-2.289-2.603-4.015-2.973
			c-1.033-0.222-2.078-0.159-3.024,0.179c-2.553,0.912-2.5,2.995-2.496,3.081c0.004,0.086-0.04,0.163-0.109,0.208l0.004,0.069
			l-0.054-0.045c-0.042,0.015-0.085,0.021-0.128,0.012c-0.037-0.008-0.072-0.025-0.103-0.051c-0.067-0.057-0.244-0.14-0.537-0.203
			c-1.028-0.22-2.757-0.048-4.251,1.165c-1.553,1.261-3.401,4.097-3.375,10.437c0.027,6.701,2.141,12.769,3.91,16.678
			c2.305,5.096,6.1,9.99,3.878,6.959c0.074,0.103,0.055,0.246-0.044,0.324c-0.049,0.04-0.109,0.052-0.167,0.047
			c-0.041,0.013-0.082,0.02-0.124,0.01C56.056,93.307,56.021,93.291,55.992,93.268z"/>
	</g>
	<g>
	</g>
	<g>
	</g>
	<g>
	</g>
	<g>
	</g>
	<g>
	</g>
	<g>
	</g>
	<g>
	</g>
	<g>
	</g>
	<g>
	</g>
	<g>
	</g>
</g>
</svg>
