<?xml version="1.0" encoding="utf-8"?>
<!-- Generator: Adobe Illustrator 15.0.0, SVG Export Plug-In  -->
<!DOCTYPE svg PUBLIC "-//W3C//DTD SVG 1.1//EN" "http://www.w3.org/Graphics/SVG/1.1/DTD/svg11.dtd" [
	<!ENTITY ns_flows "http://ns.adobe.com/Flows/1.0/">
]>
<svg version="1.1"
	 xmlns="http://www.w3.org/2000/svg" xmlns:xlink="http://www.w3.org/1999/xlink" xmlns:a="http://ns.adobe.com/AdobeSVGViewerExtensions/3.0/"
	 x="0px" y="0px" width="128px" height="128px" viewBox="-1 -1 128 128" overflow="visible" enable-background="new -1 -1 128 128"
	 xml:space="preserve">
<defs>
</defs>
<circle fill="#888888" cx="63" cy="63" r="63"/>
<path fill="#FFFFFF" d="M109.209,41.012c-3.085,1.367-6.4,2.292-9.881,2.708c3.552-2.129,6.279-5.501,7.564-9.518
	c-3.324,1.972-7.006,3.403-10.924,4.175c-3.139-3.344-7.608-5.432-12.557-5.432c-9.5,0-17.202,7.701-17.202,17.201
	c0,1.349,0.152,2.661,0.445,3.921c-14.297-0.718-26.972-7.566-35.457-17.975c-1.481,2.541-2.329,5.496-2.329,8.648
	c0,5.969,3.037,11.233,7.653,14.319c-2.82-0.091-5.473-0.864-7.792-2.152c-0.002,0.072-0.002,0.143-0.002,0.216
	c0,8.335,5.93,15.288,13.799,16.868c-1.443,0.393-2.962,0.604-4.532,0.604c-1.108,0-2.186-0.107-3.236-0.309
	c2.189,6.834,8.542,11.809,16.07,11.947c-5.888,4.612-13.305,7.364-21.365,7.364c-1.389,0-2.758-0.082-4.104-0.24
	c7.613,4.88,16.655,7.728,26.37,7.728c31.641,0,48.945-26.213,48.945-48.945c0-0.746-0.018-1.487-0.051-2.225
	C103.985,47.49,106.902,44.461,109.209,41.012z"/>
</svg>
